<svg width="32" height="22" viewBox="0 0 32 22" fill="none" xmlns="http://www.w3.org/2000/svg">
<path d="M9.30808 0.887207C10.2312 0.887207 11.085 0.959441 11.8652 1.17325C12.6467 1.31628 13.2867 1.60232 13.8545 1.95916C14.4237 2.31744 14.8499 2.8173 15.133 3.46018C15.4176 4.10307 15.5607 4.89042 15.5607 5.74711C15.5607 6.74828 15.3468 7.60497 14.8499 8.24786C14.4237 8.89218 13.7129 9.46283 12.8605 9.8919C14.0683 10.2502 14.9915 10.8931 15.5607 11.7512C16.1284 12.6079 16.4838 13.6799 16.4838 14.8948C16.4838 15.896 16.27 16.7527 15.9146 17.4678C15.5607 18.1829 14.9915 18.8258 14.3515 19.2549C13.6562 19.7148 12.8877 20.0528 12.079 20.2546C11.2266 20.4699 10.3743 20.6129 9.52189 20.6129H0V0.887207H9.30808ZM8.73887 8.89074C9.52045 8.89074 10.1604 8.67693 10.6574 8.32009C11.1544 7.96325 11.3682 7.31893 11.3682 6.53302C11.3682 6.10395 11.296 5.67632 11.1544 5.39028C11.0128 5.10423 10.799 4.88897 10.5158 4.67516C10.2312 4.53214 9.94663 4.38911 9.59124 4.31832C9.23584 4.24609 8.8819 4.24609 8.45427 4.24609H4.33404V8.89218H8.74032L8.73887 8.89074ZM8.95269 17.3248C9.37887 17.3248 9.80505 17.2526 10.1604 17.1818C10.5158 17.1095 10.8712 16.9679 11.1544 16.7527C11.4439 16.5435 11.6861 16.2758 11.8652 15.9668C12.0067 15.6099 12.1498 15.1809 12.1498 14.681C12.1498 13.6799 11.8652 12.9647 11.2974 12.4649C10.7282 12.0358 9.94663 11.822 9.02348 11.822H4.33404V17.3262L8.95269 17.3248ZM22.6656 17.2526C23.2334 17.8246 24.0857 18.1107 25.2227 18.1107C26.0043 18.1107 26.715 17.8969 27.2828 17.54C27.852 17.111 28.2074 16.6819 28.349 16.2543H31.8307C31.2614 17.9677 30.4091 19.1826 29.2736 19.97C28.1352 20.6837 26.7858 21.1127 25.1519 21.1127C24.1065 21.116 23.0698 20.9219 22.0964 20.5406C21.2204 20.2122 20.4393 19.6722 19.8225 18.9688C19.1627 18.3109 18.675 17.5007 18.4023 16.6097C18.047 15.6807 17.9039 14.681 17.9039 13.5368C17.9039 12.4649 18.047 11.4652 18.4023 10.5348C18.7446 9.63961 19.2507 8.81606 19.8947 8.10628C20.5435 7.44006 21.3152 6.9058 22.1672 6.53302C23.1159 6.15171 24.1294 5.95745 25.1519 5.96093C26.3596 5.96093 27.4258 6.17618 28.349 6.67604C29.2736 7.1759 29.9829 7.748 30.5507 8.60614C31.1199 9.39204 31.5475 10.321 31.8307 11.3221C31.9722 12.3219 32.043 13.323 31.9722 14.4658H21.6702C21.6702 15.6099 22.0964 16.6819 22.6656 17.254V17.2526ZM27.1412 9.74888C26.6442 9.24902 25.8627 8.96297 24.9381 8.96297C24.2995 8.96297 23.8011 9.10744 23.3749 9.32125C22.9488 9.53507 22.6656 9.82111 22.381 10.1072C22.119 10.3833 21.9455 10.7314 21.8826 11.1069C21.8118 11.4652 21.741 11.7512 21.741 12.0358H28.1352C27.9936 10.9639 27.6382 10.2502 27.1412 9.74888ZM20.8886 2.24521H28.8459V4.1753H20.8901V2.24521H20.8886Z" fill="#3E3E3E"/>
</svg>
