<svg width="64" height="42" viewBox="0 0 64 42" fill="none" xmlns="http://www.w3.org/2000/svg">
<path d="M18.6162 0.774414C20.4625 0.774414 22.1701 0.918882 23.7303 1.34651C25.2935 1.63255 26.5735 2.20465 27.709 2.91832C28.8474 3.63488 29.6997 4.6346 30.2661 5.92037C30.8353 7.20613 31.1213 8.78083 31.1213 10.4942C31.1213 12.4966 30.6937 14.2099 29.6997 15.4957C28.8474 16.7844 27.4258 17.9257 25.7211 18.7838C28.1366 19.5004 29.9829 20.7861 31.1213 22.5024C32.2568 24.2158 32.9676 26.3597 32.9676 28.7897C32.9676 30.792 32.54 32.5054 31.8292 33.9356C31.1213 35.3658 29.9829 36.6516 28.7029 37.5098C27.3125 38.4295 25.7755 39.1057 24.158 39.5092C22.4532 39.9397 20.7485 40.2258 19.0438 40.2258H0V0.774414H18.6162ZM17.4777 16.7815C19.0409 16.7815 20.3209 16.3539 21.3148 15.6402C22.3088 14.9265 22.7364 13.6379 22.7364 12.066C22.7364 11.2079 22.5919 10.3526 22.3088 9.78055C22.0256 9.20846 21.598 8.77795 21.0317 8.35032C20.4625 8.06427 19.8933 7.77823 19.1825 7.63665C18.4717 7.49218 17.7638 7.49218 16.9085 7.49218H8.66808V16.7844H17.4806L17.4777 16.7815ZM17.9054 33.6496C18.7577 33.6496 19.6101 33.5051 20.3209 33.3635C21.0317 33.2191 21.7424 32.9359 22.3088 32.5054C22.8877 32.0871 23.3721 31.5515 23.7303 30.9336C24.0135 30.2199 24.2995 29.3618 24.2995 28.362C24.2995 26.3597 23.7303 24.9295 22.5948 23.9298C21.4564 23.0716 19.8933 22.644 18.047 22.644H8.66808V33.6525L17.9054 33.6496ZM45.3312 33.5051C46.4667 34.6493 48.1714 35.2214 50.4454 35.2214C52.0085 35.2214 53.4301 34.7938 54.5656 34.0801C55.704 33.2219 56.4148 32.3638 56.6979 31.5086H63.6613C62.5229 34.9353 60.8182 37.3653 58.5471 38.94C56.2703 40.3673 53.5716 41.2255 50.3038 41.2255C48.2129 41.2319 46.1397 40.8438 44.1928 40.0813C42.4409 39.4243 40.8786 38.3444 39.6449 36.9377C38.3253 35.6218 37.3499 34.0013 36.8047 32.2193C36.0939 30.3615 35.8079 28.362 35.8079 26.0737C35.8079 23.9298 36.0939 21.9303 36.8047 20.0696C37.4893 18.2792 38.5014 16.6321 39.7894 15.2126C41.087 13.8801 42.6304 12.8116 44.3344 12.066C46.2318 11.3034 48.2588 10.9149 50.3038 10.9219C52.7193 10.9219 54.8516 11.3524 56.6979 12.3521C58.5471 13.3518 59.9658 14.496 61.1013 16.2123C62.2397 17.7841 63.095 19.6419 63.6613 21.6443C63.9445 23.6437 64.086 25.646 63.9445 27.9315H43.3404C43.3404 30.2199 44.1928 32.3638 45.3312 33.508V33.5051ZM54.2824 18.4978C53.2885 17.498 51.7253 16.9259 49.8762 16.9259C48.5991 16.9259 47.6022 17.2149 46.7499 17.6425C45.8975 18.0701 45.3312 18.6422 44.762 19.2143C44.238 19.7667 43.8909 20.4629 43.7652 21.2138C43.6236 21.9303 43.482 22.5024 43.482 23.0716H56.2703C55.9872 20.9277 55.2764 19.5004 54.2824 18.4978ZM41.7773 3.49041H57.6919V7.3506H41.7802V3.49041H41.7773Z" fill="white"/>
</svg>
